<?xml version="1.0" encoding="utf-8"?>
<!-- Generator: Adobe Illustrator 22.0.1, SVG Export Plug-In . SVG Version: 6.00 Build 0)  -->
<svg version="1.1" id="Capa_1" xmlns="http://www.w3.org/2000/svg" xmlns:xlink="http://www.w3.org/1999/xlink" x="0px" y="0px"
	 viewBox="0 0 595.3 841.9" style="enable-background:new 0 0 595.3 841.9;" xml:space="preserve">
<style type="text/css">
	.st0{fill:#312B7E;}
</style>
<g>
	<g>
		<path class="st0" d="M326.9,521.9c-10.4,0-20.3-1.5-29.7-4.4c-7.6-2.4-9.9-5.8-9.2-13.6c0.4-4.1-0.5-5.1-1.7-5.8
			c-9.2-6-12.7-15.2-15.4-23.5c-2.5-7.9-4.1-16.8-4.8-27.8c-0.2-2.8-0.9-5.7-1.7-8.7c-0.4-1.5-0.8-2.9-1.1-4.4
			c-0.8-3.7-1.6-8-0.5-12.7c1.6-6.5,5.8-11.1,12-13c2.3-0.7,4.5-0.9,6.6-0.7c0.8-7.4,5.5-12.5,13.3-14.4c5.7-1.3,11.1-0.9,16,1.3
			c2.9-7.5,9-10.6,14.4-11.8c8.4-1.9,15.8,0.7,21.9,7.8c0.6-0.3,1.3-0.6,2.1-0.9c10.9-3.5,22.2,0.1,29.6,9.3
			c4.6,5.8,6.7,12.7,6,20.6c-0.6,7.3-0.8,15.7,2.4,23.3c4.5,10.4,3.3,20.5-3.4,30c-5,7.1-10,14.5-15.3,22.4c-0.3,0.4-0.5,1-0.5,1.4
			c0,1.9,0.1,3.9,0.2,6.1c0.1,1.4,0.2,2.8,0.2,4.2c0.1,5.4-2.1,8.5-7.3,10.1c-10.3,3.2-20.8,4.9-31.2,5.2
			C328.9,521.9,327.9,521.9,326.9,521.9z M299.6,506.1c0.3,0.1,0.6,0.2,1.1,0.4c9,2.8,18.7,4.1,28.9,3.8c9-0.2,18.1-1.7,27.1-4.4
			c0-0.9-0.1-1.8-0.1-2.8c-0.1-2.3-0.3-4.6-0.2-7c0.1-2.6,0.9-5.3,2.4-7.5c5.4-8,10.4-15.5,15.5-22.7c4.4-6.3,5.1-12.1,2.2-18.7
			c-4.3-10-4-20.7-3.3-28.9c0.4-4.9-0.7-8.8-3.5-12.3c-4.4-5.5-10.6-7.5-16.9-5.5c-0.4,0.1-1.3,0.8-1.9,1.3
			c-0.6,0.5-1.3,0.9-1.9,1.3l-4.9,3.1l-3.1-4.9c-5.1-8-9.5-8.3-13.1-7.5c-4.1,0.9-6.8,3-7,10.2l-0.2,11.5l-9.7-7.3
			c-0.5-0.4-1-0.7-1.4-1.1c-3.5-3-7.3-4-12-2.9c-3.4,0.8-4.5,2.2-4.5,5.5c0,1.3,0.2,2.7,0.4,4.2c0.1,0.8,0.2,1.6,0.3,2.4l1.4,11.8
			l-10.9-6.5l-1-1c-1.5-1.7-2.8-2.1-4.9-1.5c-2.3,0.7-3.5,2.1-4.1,4.6c-0.5,2.2,0,4.7,0.5,7.4c0.3,1.3,0.6,2.7,1,4
			c0.9,3.5,1.8,7.1,2.1,10.9c0.7,10.2,2,17.9,4.3,25.1c2.6,8.3,5.2,13.7,10.6,17.2c8,5.2,7.2,13.8,6.9,16.7
			C299.7,505.4,299.6,505.8,299.6,506.1z"/>
	</g>
	<g>
		<path class="st0" d="M202.7,522.5c-4.2,0-7.4-2.9-8-7.4l-8.7-64.6c-1.4-10.5-2.8-21-4.2-31.6l-2.3-18l0.9-3.9
			c0.5-2.2,1-4.6,1.6-6.9c3.6-14.9,7.2-29.9,10.9-44.8c1.4-5.8,4.2-7.1,9.2-7.7c4-0.5,7,1.4,8.9,5.6l5.3,11.2
			c5.6,11.8,11.4,23.9,16.8,36c1.8,4,2.4,8.3,2.9,12.2l0.2,1.6c2,13.8,3.8,27.6,5.6,41.4c1.1,8.4,2.2,16.8,3.3,25.2l2.1,16.6
			c0.9,6.6,1.7,13.2,2.6,19.8c0.2,1.2,0.6,4.2-1.4,6.9c-2,2.6-5.1,3-6.2,3.2c-5.8,0.8-11.5,1.5-17.3,2.3l-20.9,2.8
			C203.5,522.5,203.1,522.5,202.7,522.5z M191.2,401.5l2.1,15.9c1.4,10.5,2.8,21,4.2,31.5l8.3,61.4l17.4-2.3c4.9-0.7,9.7-1.3,14.6-2
			c-0.8-5.9-1.5-11.5-2.3-17.2l-2.1-16.6c-1.1-8.4-2.2-16.8-3.3-25.1c-1.8-13.8-3.6-27.5-5.6-41.2l-0.2-1.6c-0.5-3.3-0.9-6.5-2-9
			c-5.4-12-11.2-24.1-16.7-35.8l-2.9-6c-3.2,13.1-6.4,26.3-9.6,39.4c-0.5,2.3-1.1,4.5-1.5,6.7L191.2,401.5z"/>
	</g>
	<g>
		<path class="st0" d="M387.8,446c-1.3,0-3.1-0.3-4.7-1.5c-1.7-1.3-2.7-3.2-3-5.7l-0.2-2.3c-0.6-6.1-1.3-12.4-0.5-18.9
			c0.1-1.1,0.1-2.3,0-3.7c0-0.8,0-1.6,0-2.5v-5.2l5.2-0.6c5-0.6,10-1.2,15.1-1.8c14.6-1.7,29.6-3.5,44.7-4.5l5.4-0.3l4.8,36.2
			l-8.8,1.7c-2.5,0.5-4.9,1-7.4,1.4c-7.9,1.3-15.9,2.5-23.8,3.7c-8.3,1.3-16.6,2.6-24.9,3.9C389.3,445.9,388.6,446,387.8,446z
			 M391.1,416.5c0,0.8-0.1,1.6-0.2,2.4c-0.6,4.8-0.1,9.7,0.4,14.9c7.2-1.1,14.4-2.3,21.5-3.4c7.9-1.2,15.9-2.5,23.8-3.7
			c1.7-0.3,3.3-0.6,4.9-0.9l-1.9-14.5c-13,1-26,2.6-38.6,4.1C397.7,415.8,394.4,416.2,391.1,416.5z"/>
	</g>
	<g>
		<path class="st0" d="M234.3,465.2l-5.5-40.7l37.9-5.1l0.8,5.7c0.4,3.1,1.2,6.1,2,9.3c1.6,6.7,3.3,13.6,2.4,21.3l-0.5,4.5
			L234.3,465.2z M242,434.5l2.4,17.6l16.2-2.2c-0.2-4.1-1.2-8.3-2.3-12.7c-0.4-1.6-0.8-3.1-1.1-4.7L242,434.5z"/>
	</g>
	<g>
		<path class="st0" d="M188.2,471.2c-4.8,0-7.8-2.7-8.5-7.7c-0.5-3.6-1-7.2-1.4-10.8l-1.6-12.1c-0.8-5.8,2-9.4,7.7-10.1
			c0.7-0.1,1.5-0.2,2.3-0.2l6.5-0.5l5.4,40l-6.5,1.1c-0.9,0.2-1.7,0.3-2.5,0.4C189.2,471.2,188.7,471.2,188.2,471.2z"/>
	</g>
</g>
</svg>
