<?xml version="1.0" encoding="utf-8"?>
<!-- Generator: Adobe Illustrator 22.0.1, SVG Export Plug-In . SVG Version: 6.00 Build 0)  -->
<svg version="1.1" id="Capa_1" xmlns="http://www.w3.org/2000/svg" xmlns:xlink="http://www.w3.org/1999/xlink" x="0px" y="0px"
	 viewBox="0 0 595.3 841.9" style="enable-background:new 0 0 595.3 841.9;" xml:space="preserve">
<style type="text/css">
	.st0{fill:#333336;}
	.st1{fill:#FFFFFF;}
</style>
<g>
	<path class="st0" d="M300.8,435c-69.8-0.3-127.3-58.1-127.1-127.8c0.2-70.1,58.4-127.9,128.2-127.4
		c69.8,0.5,127.3,58.6,126.8,128.2C428.2,377.9,370.5,435.3,300.8,435z M224.3,354.7c17.8,0,34.7,0.2,51.5,0
		c15.4-0.2,24.6-7.5,28-21.6c2.9-12.1-2.4-21.6-16.1-28.6c0.9-0.8,1.7-1.7,2.6-2.3c7.8-6.1,11-14.1,8.7-23.6
		c-2.2-9.2-8.3-15.2-17.6-17.2c-5-1.1-10.2-1.4-15.3-1.5c-13.7-0.2-27.5-0.1-41.8-0.1c0,2.7,0,4.6,0,6.4
		C224.3,295.4,224.3,324.8,224.3,354.7z M376,332.1c-5.5,0-10.4-0.2-15.3,0.1c-1.8,0.1-4.2,1-5.2,2.3c-4.2,5.7-9.6,7.3-16.1,5.4
		c-6.6-1.9-9.9-7.1-10.4-16.3c8,0,15.9,0,23.9,0c7.9,0,15.7,0,23.5,0c1-24.1-10-39.4-28.5-41c-21.3-1.8-35.9,9.1-38.7,28.8
		c-3.2,22.5,7.4,39,27.6,42.6C355.1,357.3,373.4,347.6,376,332.1z M324.1,272.4c13,0,25.6,0,37.9,0c0-3.1,0-5.6,0-8.3
		c-12.8,0-25.1,0-37.9,0C324.1,266.9,324.1,269.4,324.1,272.4z"/>
	<path class="st1" d="M224.3,354.7c0-29.9,0-59.2,0-88.6c0-1.8,0-3.7,0-6.4c14.3,0,28-0.1,41.8,0.1c5.1,0.1,10.3,0.4,15.3,1.5
		c9.3,2,15.4,8,17.6,17.2c2.3,9.6-0.9,17.6-8.7,23.6c-0.9,0.7-1.7,1.5-2.6,2.3c13.8,7.1,19,16.5,16.1,28.6
		c-3.3,14.1-12.5,21.4-28,21.6C259,354.8,242.1,354.7,224.3,354.7z M244.2,338.5c10.4,0,20,0.6,29.4-0.2c7.4-0.6,10.7-5,10.7-11.5
		c-0.1-6.8-3.4-11.7-10.2-12.1c-9.9-0.7-19.8-0.2-29.9-0.2C244.2,322.5,244.2,330.4,244.2,338.5z M244.2,296.8
		c9.6,0,19,0.5,28.2-0.2c5-0.4,8.1-4.2,8.3-9.7c0.2-5.8-2.6-10.1-8.1-10.5c-9.4-0.7-18.9-0.2-28.5-0.2
		C244.2,283.3,244.2,290,244.2,296.8z"/>
	<path class="st1" d="M376,332.1c-2.7,15.5-20.9,25.2-39.3,22c-20.2-3.6-30.8-20.1-27.6-42.6c2.8-19.8,17.5-30.7,38.7-28.8
		c18.6,1.6,29.5,16.8,28.5,41c-7.8,0-15.7,0-23.5,0c-7.9,0-15.9,0-23.9,0c0.5,9.2,3.8,14.4,10.4,16.3c6.5,1.9,11.9,0.3,16.1-5.4
		c1-1.4,3.4-2.2,5.2-2.3C365.6,331.9,370.6,332.1,376,332.1z M356.8,312.1c-0.1-10.2-4.9-15.6-13.6-15.5c-8.9,0-13.8,5.6-13.5,15.5
		C338.6,312.1,347.4,312.1,356.8,312.1z"/>
	<path class="st1" d="M324.1,272.4c0-3,0-5.5,0-8.3c12.8,0,25.1,0,37.9,0c0,2.8,0,5.3,0,8.3C349.6,272.4,337.1,272.4,324.1,272.4z"
		/>
	<path class="st0" d="M244.2,338.5c0-8.1,0-16,0-24c10.1,0,20-0.5,29.9,0.2c6.8,0.5,10.1,5.3,10.2,12.1c0.1,6.5-3.3,10.9-10.7,11.5
		C264.1,339.1,254.5,338.5,244.2,338.5z"/>
	<path class="st0" d="M244.2,296.8c0-6.7,0-13.4,0-20.6c9.5,0,19-0.5,28.5,0.2c5.5,0.4,8.3,4.7,8.1,10.5c-0.2,5.5-3.3,9.3-8.3,9.7
		C263.2,297.3,253.9,296.8,244.2,296.8z"/>
	<path class="st0" d="M356.8,312.1c-9.4,0-18.2,0-27.1,0c-0.3-10,4.6-15.5,13.5-15.5C351.9,296.5,356.7,301.9,356.8,312.1z"/>
</g>
</svg>
