<?xml version="1.0" encoding="utf-8"?>
<!-- Generator: Adobe Illustrator 22.0.1, SVG Export Plug-In . SVG Version: 6.00 Build 0)  -->
<svg version="1.1" id="Capa_1" xmlns="http://www.w3.org/2000/svg" xmlns:xlink="http://www.w3.org/1999/xlink" x="0px" y="0px"
	 viewBox="0 0 595.3 841.9" style="enable-background:new 0 0 595.3 841.9;" xml:space="preserve">
<style type="text/css">
	.st0{fill:#2E2E7C;stroke:#000000;stroke-miterlimit:10;}
</style>
<g>
	<path class="st0" d="M241.5,495.9c-0.9-0.2-1.9-0.4-2.8-0.7c-8.1-2.7-12.9-8.4-15-16.5c-0.1-0.6-0.2-1.2-0.3-1.7c0-0.2,0-0.3,0-0.5
		c0-0.1,0.1-0.3,0.1-0.4c0.1-1.9,1.1-3.4,2.5-4.7c3.2-3.2,6.4-6.4,9.6-9.6c5.8-5.8,11.7-11.7,17.5-17.5c1.2-1.2,2.7-1.9,4.4-2
		c2.4-0.1,4.6,0.6,6.7,1.5c0.5,0.2,0.8,0.2,1.3-0.2c3.8-3.8,7.6-7.6,11.4-11.4c0.2-0.2,0.3-0.4,0.5-0.6c-0.1-0.2-0.2-0.3-0.3-0.5
		c-5.9-8-9.4-17-10.3-26.9c-0.4-5-0.2-9.9,0.8-14.8c1.9-9.3,6-17.6,12.3-24.7c9.2-10.4,20.8-16.3,34.6-17.7c1.1-0.1,2.3-0.2,3.4-0.3
		c1.2,0,2.4,0,3.6,0c1.2,0.1,2.4,0.2,3.5,0.4c11.9,1.2,22.2,5.8,30.9,14c8.5,7.9,13.7,17.7,15.9,29.1c0.4,2.1,0.5,4.3,0.8,6.5
		c0.1,0.5,0.1,0.9,0.2,1.4c0,1.2,0,2.4,0,3.6c-0.1,0.4-0.1,0.8-0.2,1.2c-0.4,2.7-0.5,5.4-1.1,8c-2.6,12.2-8.8,22.3-18.4,30.2
		c-8.4,6.8-17.9,10.7-28.7,11.7c-5,0.4-10,0.2-14.9-0.8c-7.7-1.5-14.7-4.7-21-9.3c-0.2-0.2-0.5-0.3-0.7-0.5
		c-4.1,4.1-8.1,8.1-12,12.1c-0.2,0.2-0.2,0.7-0.1,0.9c0.4,1.5,1.1,2.9,1.4,4.3c0.5,2.8,0.1,5.4-2.2,7.4c-1.2,1.1-2.4,2.3-3.6,3.5
		c-7.9,7.9-15.8,15.7-23.6,23.6c-1.1,1.1-2.3,1.8-3.8,2c-0.1,0-0.3,0.1-0.4,0.2C242.7,495.9,242.1,495.9,241.5,495.9z M276.6,400
		c0.1,23,19.2,42,42.2,41.9c23-0.1,42-19.2,41.9-42.2c-0.1-22.9-19.2-41.9-42.1-41.8C295.5,357.9,276.6,377,276.6,400z"/>
</g>
</svg>
