<?xml version="1.0" encoding="utf-8"?>
<!-- Generator: Adobe Illustrator 22.0.1, SVG Export Plug-In . SVG Version: 6.00 Build 0)  -->
<svg version="1.1" id="Capa_1" xmlns="http://www.w3.org/2000/svg" xmlns:xlink="http://www.w3.org/1999/xlink" x="0px" y="0px"
	 viewBox="0 0 595.3 841.9" style="enable-background:new 0 0 595.3 841.9;" xml:space="preserve">
<g>
	<path d="M295.3,393.3c-4,0-8,0-12,0c-0.8-0.2-1.6-0.5-2.4-0.6c-31.4-4.1-53.3-20.8-65.2-50c-2.9-7.1-3.8-15.1-5.6-22.6
		c0-4,0-8,0-12c0.2-0.9,0.5-1.8,0.6-2.7c4.2-31.2,20.9-53,50-64.9c7.1-2.9,15.1-3.8,22.7-5.6c4,0,8,0,12,0c0.8,0.2,1.6,0.5,2.4,0.6
		c31.4,4.1,53.3,20.8,65.2,50c2.9,7.1,3.8,15.1,5.6,22.6c0,4,0,8,0,12c-0.2,0.9-0.5,1.8-0.6,2.7c-4.2,31.2-20.9,53-50,64.9
		C310.8,390.6,302.9,391.4,295.3,393.3z M348.8,314.1c0-32.5-26.6-59.3-59.2-59.5c-32.8-0.2-59.8,26.8-59.8,59.6
		c0.1,32.5,26.8,59.2,59.4,59.3C321.9,373.6,348.7,346.8,348.8,314.1z"/>
	<path d="M309.8,278.9c5,5.1,9.5,9.6,14.3,14.4c-6.8,6.8-13.7,13.6-20.7,20.5c7.1,7,14,13.9,20.9,20.7c-5,5-9.5,9.6-14.3,14.4
		c-6.8-6.9-13.7-13.8-20.6-20.7c-7,7.1-13.9,14.1-20.7,20.9c-5.1-5-9.6-9.5-14.4-14.3c6.9-6.8,13.8-13.7,20.7-20.6
		c-7.1-7-14.1-13.9-20.9-20.7c5-5,9.5-9.6,14.3-14.4c6.8,6.9,13.6,13.8,20.5,20.8C296.1,292.8,303,285.8,309.8,278.9z"/>
</g>
</svg>
