<?xml version="1.0" encoding="utf-8"?>
<!-- Generator: Adobe Illustrator 22.0.1, SVG Export Plug-In . SVG Version: 6.00 Build 0)  -->
<svg version="1.1" id="Capa_1" xmlns="http://www.w3.org/2000/svg" xmlns:xlink="http://www.w3.org/1999/xlink" x="0px" y="0px"
	 viewBox="0 0 595.3 841.9" style="enable-background:new 0 0 595.3 841.9;" xml:space="preserve">
<style type="text/css">
	.st0{fill:#333336;}
</style>
<path class="st0" d="M281.7,414.5c-28.7-5.4-48.1-22.8-60.1-48.4c-15.8-33.6-7.9-72.7,18.8-98.5c26.2-25.3,65.9-31.7,98.5-15.8
	c33.1,16.2,52.5,51.2,48.7,87.9c-3.9,37-32.3,68.3-69,75.8c-3.4,0.7-7,1.8-10.6,0.3c0.1-17.4,0.2-34.9,0.2-52.3
	c0-13.4,0-13.5,13.2-13.7c4.3,0,6.3-0.7,6.4-5.8c0.2-14.2,0.5-14.3-13.8-14.9c-4.1-0.2-5.8-1.1-5.8-5.6
	c-0.1-11.3,3.5-15.4,15.1-13.6c6.9,1.1,8.7-1.3,9.1-7.1c0.2-2.2,0.5-4.4,1-6.6c0.6-2.7-0.5-3.9-3-4.9c-26.7-10.4-47.6,2.8-48.3,31.2
	c-0.2,6.3-3,6.9-7.6,6.3c-5.6-0.8-7.5,1.5-6.8,6.9c0.3,1.9,0.3,3.9,0,5.8c-1,6.4,1.3,9.4,8,8.2c5.5-1,6.3,1.9,6.3,6.6
	C281.6,375.7,281.7,395.1,281.7,414.5z"/>
</svg>
