<?xml version="1.0" encoding="utf-8"?>
<!-- Generator: Adobe Illustrator 22.0.1, SVG Export Plug-In . SVG Version: 6.00 Build 0)  -->
<svg version="1.1" id="Capa_1" xmlns="http://www.w3.org/2000/svg" xmlns:xlink="http://www.w3.org/1999/xlink" x="0px" y="0px"
	 viewBox="0 0 595.3 841.9" style="enable-background:new 0 0 595.3 841.9;" xml:space="preserve">
<style type="text/css">
	.st0{fill:#333336;}
	.st1{fill:#FFFFFF;}
</style>
<path d="M245.6,376.2c0-0.6-0.1-1.2-0.1-1.8c0-0.8-0.1-2,1-2c1.4-0.1,1.1,1.3,1.3,2.2C247,375,246.3,375.6,245.6,376.2z"/>
<path class="st0" d="M213.7,388.4c0-4.1,0-8.2,0-12.3c0.3-1.4,0.7-2.7,0.8-4.1c4.1-44.4,35.8-81.7,79-92.7
	c6.8-1.7,13.9-2.6,20.9-3.8c4.1,0,8.2,0,12.3,0c1.2,0.3,2.4,0.7,3.6,0.8c44.5,3.9,81.9,35.4,93.1,78.6c1.8,7,2.6,14.2,3.9,21.3
	c0,4.1,0,8.2,0,12.3c-0.4,2.8-0.8,5.6-1.1,8.4c-5.7,42.2-37,77.7-78.2,88.4c-7,1.8-14.2,2.6-21.3,3.9c-4.1,0-8.2,0-12.3,0
	c-1.2-0.3-2.4-0.7-3.6-0.8c-42.3-3.7-78.4-32.2-91.3-72.7C216.7,406.8,215.6,397.5,213.7,388.4z M311.5,411
	c4.8,2.5,8.9,5.6,13.5,6.8c12.6,3.2,23.4-0.9,32.4-9.9c9-9,12.8-20.4,14.6-32.7c3-21.4-6.4-39.8-25.1-48c-13-5.7-26.6-6.8-40.3-3.3
	c-26.5,6.7-42.3,31.5-36.9,57.3c1.3,6.3,4.2,11.7,10,14.9c2.4,1.3,5.5,1.6,8.2,2.4c0.4-3.6,1.2-7.2,1.2-10.9c0-1.7-1.9-3.2-2.5-5
	c-1.1-3.1-2.4-6.3-2.5-9.5c-0.8-21.7,19.7-40.8,41.4-38.4c12.5,1.4,22.6,6.9,26.2,19.8c4,14.4,2,28.3-6.2,40.9
	c-4.5,7-10.9,10.9-19.7,9.3c-5.9-1.1-8.8-4-8.6-9.9c0.1-3.4,0.8-6.9,1.7-10.2c1.6-6.6,3.9-13,5.1-19.7c1.3-6.7-0.9-10.6-5.7-12.5
	c-5.5-2.2-11-0.8-14.7,4.2c-5.6,7.7-6.6,16.1-4,25.2c0.6,2.3,1,4.9,0.5,7.2c-2.1,9.4-4.9,18.6-7,28c-2.7,12.3-4.6,24.7-1.8,38.2
	C305.5,443.4,307.7,426.8,311.5,411z"/>
<path class="st1" d="M311.5,411c-3.9,15.8-6.1,32.4-20.4,44.1c-2.7-13.5-0.9-25.9,1.8-38.2c2.1-9.4,4.8-18.6,7-28
	c0.5-2.2,0.2-4.9-0.5-7.2c-2.6-9.1-1.6-17.6,4-25.2c3.7-5,9.3-6.5,14.7-4.2c4.9,2,7,5.8,5.7,12.5c-1.3,6.6-3.5,13.1-5.1,19.7
	c-0.8,3.4-1.5,6.8-1.7,10.2c-0.2,5.9,2.7,8.9,8.6,9.9c8.8,1.6,15.2-2.3,19.7-9.3c8.1-12.6,10.1-26.5,6.2-40.9
	c-3.6-13-13.6-18.5-26.2-19.8c-21.6-2.4-42.2,16.8-41.4,38.4c0.1,3.2,1.5,6.4,2.5,9.5c0.6,1.8,2.5,3.3,2.5,5c0,3.6-0.7,7.2-1.2,10.9
	c-2.8-0.8-5.8-1.1-8.2-2.4c-5.8-3.1-8.7-8.6-10-14.9c-5.5-25.8,10.4-50.5,36.9-57.3c13.8-3.5,27.3-2.4,40.3,3.3
	c18.6,8.2,28.1,26.6,25.1,48c-1.8,12.3-5.6,23.7-14.6,32.7c-9,9-19.9,13.1-32.4,9.9C320.4,416.6,316.3,413.5,311.5,411z"/>
</svg>
