<?xml version="1.0" encoding="utf-8"?>
<!-- Generator: Adobe Illustrator 22.0.1, SVG Export Plug-In . SVG Version: 6.00 Build 0)  -->
<svg version="1.1" id="Capa_1" xmlns="http://www.w3.org/2000/svg" xmlns:xlink="http://www.w3.org/1999/xlink" x="0px" y="0px"
	 viewBox="0 0 595.3 841.9" style="enable-background:new 0 0 595.3 841.9;" xml:space="preserve">
<style type="text/css">
	.st0{fill:#333336;}
	.st1{fill:#FFFFFF;}
</style>
<g>
	<path class="st0" d="M288.9,494.9c-67.2-1.3-119.5-55.9-118-123.1c1.5-64.8,56.1-116.5,122-115.4c66.2,1.1,118.3,55.9,116.9,122.8
		C408.3,443.4,353.2,496.2,288.9,494.9z M364.7,318.6c-7.4-2.2-13.1,7.4-22,1.4c-23.1-15.6-47.9-3-50.4,25.1
		c-0.6,6.1-2.1,6.5-7.4,5.7c-19.9-2.9-36.6-11.8-50.8-25.7c-1.7-1.7-2.9-5.2-6-4.1c-2.8,1-2.5,4.4-3.1,6.9
		c-2.5,10.8,0.4,20.2,7.6,28.4c0.6,0.7,0.8,1.6,1.1,2.3c-3.5,2.8-6.6-2.4-9.8,0.3c1,14,8.9,22.9,21,28.7c-2.9,2.7-7-0.6-9.3,2.8
		c4.1,12.3,14.1,17.4,26.3,21.1c-12.4,10.1-26.1,11.7-41.7,13.2c55.9,33.3,123.1,1.1,133.9-62.5c2-12,4.2-22.5,14-30.2
		c0.3-0.2,0-1.2,0-2.4c-3.8,0.8-7.3,1.6-11.5,2.5c2.1-5.6,8.6-7.6,7.9-13.7c0.4-0.4,0.8-0.8,1.2-1.2c-0.3,0-0.7-0.1-1-0.1
		C364.7,317.6,364.7,318.1,364.7,318.6z"/>
	<path class="st1" d="M364.4,318.4c0.7,6.1-5.7,8.2-7.9,13.7c4.2-0.9,7.7-1.7,11.5-2.5c0,1.2,0.3,2.2,0,2.4
		c-9.8,7.7-12,18.2-14,30.2c-10.8,63.5-78,95.7-133.9,62.5c15.6-1.5,29.4-3.1,41.7-13.2c-12.2-3.7-22.2-8.8-26.3-21.1
		c2.2-3.4,6.4-0.1,9.3-2.8c-12.2-5.8-20.1-14.7-21-28.7c3.2-2.7,6.3,2.4,9.8-0.3c-0.3-0.7-0.5-1.6-1.1-2.3
		c-7.2-8.3-10-17.6-7.6-28.4c0.6-2.5,0.3-5.9,3.1-6.9c3.1-1.1,4.3,2.4,6,4.1c14.3,13.9,30.9,22.8,50.8,25.7c5.3,0.8,6.8,0.4,7.4-5.7
		c2.5-28.2,27.3-40.7,50.4-25.1c8.9,6,14.6-3.5,22-1.4L364.4,318.4z"/>
</g>
</svg>
