<?xml version="1.0" encoding="utf-8"?>
<!-- Generator: Adobe Illustrator 22.0.1, SVG Export Plug-In . SVG Version: 6.00 Build 0)  -->
<svg version="1.1" id="Capa_1" xmlns="http://www.w3.org/2000/svg" xmlns:xlink="http://www.w3.org/1999/xlink" x="0px" y="0px"
	 viewBox="0 0 595.3 841.9" style="enable-background:new 0 0 595.3 841.9;" xml:space="preserve">
<g>
	<g>
		<path d="M372.4,427.4c0.7-31.7-24.6-58-56.2-58.7c-31.7-0.7-58,24.6-58.7,56.2c0,0.5,0,1,0,1.6h0c0,0.2,0,0.3,0,0.5
			c0,1.6,0.1,3.3,0.2,4.8c0.1,0.8,0.2,1.7,0.3,2.5c0.1,0.9,0.2,1.9,0.4,2.8c0.1,0.3,0.1,0.7,0.1,1c0,0,0.1,0,0.1,0
			c0.7,3.2,1.6,6.3,2.7,9.2c0,0-0.1,0-0.1,0c1.6,4.1,3.7,8,6.2,11.6c0.1,0,0.2,0,0.2,0c5.5,7.9,12.9,14.3,21.6,18.6
			c-0.2,0-0.4,0-0.7,0c6.9,3.6,14.6,5.7,22.8,6.2c0-0.1,0-0.2,0-0.3c0.7,0,1.5,0.1,2.2,0.2c6.9,0.1,13.5-1,19.7-3.1v0.3
			c5-1.7,9.7-4,13.9-7v-0.4C362.1,463.5,372,446.7,372.4,427.4z M314,469.2c-20.3-0.4-36.9-14.9-41.1-33.9c-0.1-0.6-0.3-1.3-0.4-1.9
			c-0.1-0.7-0.2-1.4-0.3-2.1c-0.2-1.5-0.3-3-0.3-4.6c0-0.5-0.1-1,0-1.5c0-2,0.3-4,0.6-5.9c0,0,0,0,0.1,0c0.7-4.1,1.9-8,3.7-11.6
			c-0.1,0-0.1,0-0.2,0c7.1-14.8,22.3-25,39.8-24.6c6.3,0.1,12.2,1.7,17.6,4.2v0.3c5.3,2.6,10.1,6.2,13.9,10.6V398
			c6.8,7.8,10.9,18,10.6,29.1C357.5,450.8,337.8,469.7,314,469.2z M408.7,513.5l-13,12.4l-43.2-45.1l13-12.4L408.7,513.5z
			 M252.1,370.8c-10,0-20,0-30,0c-7.2,0-7.2-11.6,0-11.6c10,0,20,0,30,0C259.3,359.2,259.3,370.8,252.1,370.8z M222.1,389.6
			c-7.2,0-7.2-11.6,0-11.6c10,0,20,0,30,0c7.2,0,7.2,11.6,0,11.6C242.1,389.6,232.1,389.6,222.1,389.6z M347.3,407v39
			c-3.4,5.6-8.2,10.3-13.9,13.5v-66C339.2,396.7,343.9,401.4,347.3,407z M333.4,486.3c4.9-1.5,9.6-3.7,13.9-6.4v44h-161V314.8h131.1
			l29.9,29V373c-4.4-2.7-9-4.8-13.9-6.3v-15.9h-23.2v-22.1h-110V510h133.2L333.4,486.3L333.4,486.3z M306.2,459c-1.9,0-5.7,0-10.7,0
			c-4.9-2.9-9-6.9-12.1-11.6c10.9,0,19.7,0,22.9,0C313.4,447.4,313.4,459,306.2,459z M220.5,447.4c4.3,0,19.2,0,35.4,0
			c1.4,4,3.3,7.9,5.5,11.6c-18.3,0-36.1,0-40.9,0C213.3,459,213.3,447.4,220.5,447.4z M306.2,438.1c-3.6,0-14.4,0-27.3,0
			c-1.2-3.7-1.8-7.6-1.8-11.6c13.6,0,25.3,0,29.1,0C313.4,426.5,313.4,438.1,306.2,438.1z M220.5,426.5c4,0,17.1,0,31.9,0
			c0,3.9,0.3,7.8,1,11.6c-15.2,0-28.8,0-32.9,0C213.3,438.1,213.3,426.5,220.5,426.5z M306.2,419.4c-3.7,0-15.1,0-28.4,0
			c0.8-4.1,2.3-8.1,4.3-11.6c11.4,0,20.8,0,24.1,0C313.4,407.8,313.4,419.4,306.2,419.4z M220.5,407.8c4.3,0,18.8,0,34.8,0
			c-1.2,3.7-2,7.6-2.5,11.6c-15,0-28.2,0-32.3,0C213.3,419.4,213.3,407.8,220.5,407.8z M276.2,489.2c-7.2,0-7.2-11.6,0-11.6
			c0.9,0,1.7,0,2.6,0c8.7,6.2,18.8,10,29.5,11.2c-0.6,0.2-1.3,0.4-2,0.4C296.2,489.2,286.2,489.2,276.2,489.2z"/>
	</g>
</g>
</svg>
